<?xml version="1.0" encoding="UTF-8"?>
<svg id="Layer_1" data-name="Layer 1" xmlns="http://www.w3.org/2000/svg" viewBox="0 0 3000 3000">
  <defs>
    <style>
      .cls-1 {
        fill: none;
      }
    </style>
  </defs>
  <path d="M465.16,608.47c-5.53-33.59-8.3-69.37-8.3-107.32,0-148.55,43.45-262.6,130.37-342.1,86.92-79.47,206.15-119.24,357.71-119.24,90.6,0,164.92,14.87,222.87,44.58,57.95,29.74,102.87,69.47,134.84,119.23,31.93,49.8,54.21,104.4,66.86,163.82,12.6,59.44,20.4,117.38,23.41,173.83l-314.26,46.8c-2.99-54.95-7.8-103.25-14.48-144.86-6.69-41.58-20.06-74.28-40.11-98.06-20.06-23.75-50.16-35.66-90.26-35.66-43.11,0-75.05,15.99-95.84,47.92-20.81,31.96-31.2,67.24-31.2,105.86,0,63.9,14.48,116.27,43.47,157.12,11.87,16.75,25.55,33.81,41.04,51.18"/>
  <path d="M2023.11,2294.93v415.64h423.44v249.62h-791.18v-734.47"/>
  <polygon class="cls-1" points="2871.79 2164.05 759.99 1766.64 759.99 671.57 2871.79 971.83 2871.79 2164.05"/>
  <path d="M536.24,618.58l352.48,50.13c22.86,25.92,49.77,52.52,80.73,79.83l182.74,160.47c75.78,65.39,140.76,140.06,195.01,223.98,54.23,83.96,81.36,187.59,81.36,310.9,0,86.19-19.33,163.08-57.95,230.68-38.64,67.63-92.48,120.73-161.57,159.34-69.09,38.62-150.43,57.95-244.04,57.95-112.94,0-206.17-20.06-279.71-60.17-73.54-40.13-129.26-101.76-167.15-184.98-37.89-83.2-59.81-188.68-65.75-316.48l316.48-53.48c2.97,74.3,10.76,136.33,23.41,186.09,12.6,49.8,31.56,86.92,56.83,111.43,25.25,24.51,57.95,36.76,98.08,36.76,46.02,0,78-14.82,95.82-44.56,17.83-29.72,26.75-63.87,26.75-102.53,0-75.78-18.22-139.29-54.61-190.56-36.43-51.26-84.35-102.86-143.75-154.88l-187.21-162.7c-68.36-56.44-123.35-120.35-164.92-191.67-26.44-45.3-44.47-97.19-54.1-155.67l-336.94-47.91v1377.77l1530.32,287.98-3.16-.59v-1070.77h786.73v254.07h-418.99v479.17h323.16v256.31h-323.16v150.43l762.07,143.41V938.34L536.24,618.58Z"/>
  <polyline class="cls-1" points="465.15 608.47 2785.18 938.34 2785.18 2438.33 128.21 1938.34 128.21 560.57 465.15 608.47"/>
</svg>